PathFileType	4	(X/Y/Z)	C:\Users\chris\Documents\GitHub\baseballds\vids\pitch6_Sports2D\pitch6_Sports2D_m_person00.trc
DataRate	CameraRate	NumFrames	NumMarkers	Units	OrigDataRate	OrigDataStartFrame	OrigNumFrames
30	30	8	22	m	30	23	186
Frame#	Time	Hip			RHip			RKnee			RAnkle			RBigToe			RSmallToe			RHeel			LHip			LKnee			LAnkle			LBigToe			LSmallToe			LHeel			Neck			Head			Nose			RShoulder			RElbow			RWrist			LShoulder			LElbow			LWrist		
		X1	Y1	Z1	X2	Y2	Z2	X3	Y3	Z3	X4	Y4	Z4	X5	Y5	Z5	X6	Y6	Z6	X7	Y7	Z7	X8	Y8	Z8	X9	Y9	Z9	X10	Y10	Z10	X11	Y11	Z11	X12	Y12	Z12	X13	Y13	Z13	X14	Y14	Z14	X15	Y15	Z15	X16	Y16	Z16	X17	Y17	Z17	X18	Y18	Z18	X19	Y19	Z19	X20	Y20	Z20	X21	Y21	Z21	X22	Y22	Z22
23	0.7666666666666666	4.623587566251701	0.523829172880582	0.0	4.489289613960347	0.40885605397251373	0.0	4.888834064348006	0.06622424021160422	0.0	5.285421077083404	-0.26634808940084437	0.0	4.791275213693512	-0.14055658894085576	0.0	4.7484524185733505	-0.16738579799378475	0.0	5.314899066315522	-0.26760201292346736	0.0	4.777270518035265	0.6337346857138809	0.0	5.232325162526433	0.3422251542219046	0.0	5.720222322446863	0.08243125425281013	0.0	6.314281551563824	0.003066506335938264	0.0	6.541626772550426	0.10249299626166537	0.0	5.974064061258974	0.039702988881587374	0.0	4.072716290186879	1.1230102501449153	0.0	3.7039128543900577	1.4716136475367079	0.0	3.909113369732916	1.4060788138829339	0.0	3.815359711985744	0.7602512678147827	0.0	4.04941531521836	0.40472749347016984	0.0	4.3324181977745795	0.4660859803651352	0.0	4.362261298406647	1.234896415394035	0.0	4.637602221830598	0.9638557203610714	0.0	4.810670133812253	0.7732946408591989	0.0
24	0.8	4.5314650015129025	0.4873176633534263	0.0	4.420446511782025	0.3919401449889028	0.0	4.761964386095525	0.09220645111102181	0.0	5.094608522718961	-0.19268996896568935	0.0	4.8292367420664775	-0.15721201691773218	0.0	4.78728970727405	-0.1844498648440261	0.0	5.1313048450482315	-0.20585351939754945	0.0	4.6592536208611275	0.580726460016559	0.0	5.038163984622442	0.3184603697425411	0.0	5.414260201713929	0.07500474066851118	0.0	5.967187082439477	0.042256090075568194	0.0	6.545941823364198	0.1565847596024918	0.0	5.402552102390165	0.018338824982547627	0.0	4.234702685112993	0.9384966194720044	0.0	3.8459498304210875	1.291636076389601	0.0	3.977117931018906	1.2576150242363642	0.0	3.8211265323961814	0.742071091935417	0.0	4.023268441739093	0.3799735239743293	0.0	4.278122769975041	0.3911140030992165	0.0	4.310194167271461	1.162651092749247	0.0	4.542135366682047	0.8510858060089274	0.0	4.7123351158743185	0.703863710182632	0.0
25	0.8333333333333334	4.4255245993628485	0.446265473821815	0.0	4.340047877275095	0.37279751065211225	0.0	4.610967944864308	0.12451682781308632	0.0	4.868416972400846	-0.10483819270577072	0.0	4.872213831147986	-0.16363939864687319	0.0	4.823349459982531	-0.1956183331711636	0.0	4.9104179612639545	-0.13085844527526355	0.0	4.526658142717935	0.5227953087668087	0.0	4.818913741714311	0.29932220982139396	0.0	5.061302302685651	0.07292422031522253	0.0	5.512998142495038	0.026401341038247147	0.0	6.547136216657095	0.16942761927606928	0.0	5.003949218340844	0.002605352735207097	0.0	4.1922796399086355	0.7741039151206762	0.0	3.8888111573388677	1.0642941881975165	0.0	3.9773025431118256	1.0278802305624	0.0	3.8632867544592884	0.6565527873821551	0.0	3.9925814931920613	0.3522476457997139	0.0	4.212085214121403	0.3034578094345062	0.0	4.2227279096553065	0.9593408906670147	0.0	4.422136088016891	0.7439079227159471	0.0	4.575331684821776	0.6199744938193882	0.0
26	0.8666666666666667	4.397498480549515	0.42589178906425107	0.0	4.3258632191762	0.35865116207416414	0.0	4.564658401838332	0.13407755313616262	0.0	4.7876091978746365	-0.06992505688000143	0.0	4.892809869050065	-0.16087560187904457	0.0	4.837178009778233	-0.19420969302993504	0.0	4.832269215170085	-0.09710540262254065	0.0	4.494003058892596	0.4927192128647703	0.0	4.750294782758265	0.28804025574953535	0.0	4.929843027462443	0.07051747485304603	0.0	5.152689815722186	-0.005539281896499309	0.0	6.547054252818253	0.1635398044206876	0.0	4.914166633823025	0.0010100003677456864	0.0	4.067154772683194	0.699168585872734	0.0	3.883794944911161	0.8808806118724986	0.0	3.9514760400920315	0.8310193004504632	0.0	3.9121627200861364	0.578106844859557	0.0	3.982050163903206	0.3373490804849651	0.0	4.187435862375883	0.27232421795921635	0.0	4.178485518274406	0.8030217577149189	0.0	4.406291348132252	0.7221849324577928	0.0	4.507313518018222	0.5810784037719112	0.0
27	0.9	4.418829059070749	0.42282272118619413	0.0	4.354050533787319	0.3513080982897862	0.0	4.590004969795881	0.13053060390180052	0.0	4.808403138016902	-0.07249060646745109	0.0	4.897625104682207	-0.16069173494934783	0.0	4.841426568619367	-0.19095693073321907	0.0	4.856758142899976	-0.09506820512512289	0.0	4.521644158023127	0.48343444447170447	0.0	4.775990709983542	0.2775744655638684	0.0	4.951575491188247	0.06816690913053619	0.0	4.995212627079742	-0.02329421885851917	0.0	6.5465647127529145	0.15885741107290824	0.0	4.961486343372504	0.006138758343300362	0.0	4.011350773337131	0.6903151394864578	0.0	3.8819424588329046	0.7953895228197823	0.0	3.943425468200452	0.7406277230600172	0.0	3.9429168232853185	0.5457081256358461	0.0	3.982626576389036	0.33412945369974306	0.0	4.193906258171926	0.28125817951406085	0.0	4.185269807911137	0.7572542737386575	0.0	4.472573044460858	0.7678886833408345	0.0	4.510707508041819	0.5771574112743008	0.0
28	0.9333333333333333	4.4393035741458124	0.4293990995817124	0.0	4.376075173519966	0.3549803108789825	0.0	4.618884869645481	0.13170953115677164	0.0	4.840187117006475	-0.07862037839529418	0.0	4.901292323996784	-0.16198927887002845	0.0	4.848275954132009	-0.19014340538830896	0.0	4.891196410403055	-0.09882089250668276	0.0	4.543451428396773	0.48727311756302233	0.0	4.8055458300475244	0.2734271278223241	0.0	4.990186401822845	0.06680936449472505	0.0	4.988891368636007	-0.026805981043726498	0.0	6.544332048826593	0.15850781636382938	0.0	4.999505965781699	0.009916627223483606	0.0	4.02862622020237	0.7030378002837787	0.0	3.8963111876182572	0.7890455329593365	0.0	3.965886544695996	0.7398498067462034	0.0	3.958484418169952	0.5489240180667118	0.0	3.9836339919454598	0.337096774711361	0.0	4.206832870278785	0.29505206206246326	0.0	4.209137865669009	0.7714953814440179	0.0	4.536217234070761	0.812529570189008	0.0	4.536863270555369	0.5818144732564767	0.0
29	0.9666666666666667	4.452299671356597	0.4386251580826933	0.0	4.385007547996789	0.36571446866820345	0.0	4.635868313531962	0.13705789460823642	0.0	4.859389999222764	-0.079386821302192	0.0	4.91503696166514	-0.1578485721911041	0.0	4.861917887738811	-0.18831870401416043	0.0	4.9079131738972634	-0.09933551054810712	0.0	4.553216626703538	0.4988907446213614	0.0	4.8290277325231745	0.28187296326371925	0.0	5.014616908070395	0.06563428008049767	0.0	5.02815306405831	-0.02624723533406574	0.0	6.5408516016272324	0.15968369463766324	0.0	5.01555835027603	0.00939919543304284	0.0	4.062481300251902	0.7170375492228814	0.0	3.9212734468626076	0.8117621552038781	0.0	4.006805420294617	0.7722092184100038	0.0	3.9711661342853475	0.5628708286052291	0.0	3.9865387578498943	0.3413369485907305	0.0	4.218850687509652	0.30386230251968505	0.0	4.229738342114519	0.7928009699478873	0.0	4.546972844078663	0.8051546913677288	0.0	4.551198345573762	0.5872159360437214	0.0
30	1.0	4.465888539707469	0.4456371299927004	0.0	4.394775892530223	0.3759193938358394	0.0	4.64999557722708	0.141593283273195	0.0	4.87337964845847	-0.07718513539897538	0.0	4.938152912997981	-0.14766015172048416	0.0	4.881102271221348	-0.18318332173368299	0.0	4.917367002802284	-0.09821087723468988	0.0	4.564764528104467	0.5100475160008321	0.0	4.85316822434624	0.29410998686377937	0.0	5.0325053809100595	0.06370824615458502	0.0	5.055702958816642	-0.025311662771514	0.0	6.5453706951828154	0.1597561163335825	0.0	5.028873947812825	0.0062139886283038275	0.0	4.085351868339554	0.7281320047595229	0.0	3.948906337194677	0.8338631447992242	0.0	4.048190525117431	0.8025658043545338	0.0	3.9867473783098606	0.5721613688250505	0.0	3.9952034159813112	0.3446593178155205	0.0	4.232654849891467	0.3108833710714504	0.0	4.245214754545432	0.8043357039596748	0.0	4.530046868864519	0.7799802246335301	0.0	4.554069535472543	0.5934692585392569	0.0
